<?xml version="1.0" encoding="utf-8"?>
<!-- Generator: Adobe Illustrator 16.0.0, SVG Export Plug-In . SVG Version: 6.00 Build 0)  -->
<!DOCTYPE svg PUBLIC "-//W3C//DTD SVG 1.1//EN" "http://www.w3.org/Graphics/SVG/1.1/DTD/svg11.dtd">
<svg version="1.1" id="Layer_1" xmlns="http://www.w3.org/2000/svg" xmlns:xlink="http://www.w3.org/1999/xlink" x="0px" y="0px"
	 width="208px" height="23px" viewBox="0 0 208 23" enable-background="new 0 0 208 23" xml:space="preserve">
<path fill="#4b5563" d="M85.053,7H50.121c-2.994,0-2.932-2,0-2h34.932C88.421,5,88.359,7,85.053,7z"/>
<path fill="#4b5563" d="M155.914,7h-34.932c-2.994,0-2.933-2,0-2h34.932C159.283,5,159.221,7,155.914,7z"/>
<path fill="#4b5563" d="M103.018,1c0,0,4.991-0.006,4.99,5c0,5-4.99,5-4.99,5s-4.99,0-4.99-5C98.028,0.994,103.018,1,103.018,1z"/>
<path fill="#4b5563" d="M195.836,22H10.198c-13.598,0-13.598-2,0-2h185.638C212.055,20,212.055,22,195.836,22z"/>
</svg>
