<svg xmlns="http://www.w3.org/2000/svg" xmlns:xlink="http://www.w3.org/1999/xlink" version="1.1" id="" x="0px" y="0px" viewBox="0 0 366 90.8" style="enable-background:new 0 0 0 0;" xml:space="preserve">

<g>
	<g>
		<path class="st0" d="M284.7,66.5c-6,0-14.2-1.3-20-3.1l-0.8-0.2V16.5l-5.6-4.8L282,3.4v25.2c4.2-3.7,8.6-5.6,12.8-5.6    c9.3,0,15.3,7.8,15.3,20C310.1,58.2,301.1,66.5,284.7,66.5z M266.1,61.6c5.5,1.6,13,2.7,18.6,2.7c15.2,0,23.2-7.4,23.2-21.4    c0-11-5-17.8-13.1-17.8c-3.7,0-7.7,1.9-11.5,5.3c0.3,0,0.7-0.1,1-0.1c7.8,0,8.7,9.8,8.7,17.1c0,6.8-0.8,15.8-8.2,15.8    c-1.6,0-3.3-0.5-4.5-1.4l-0.5-0.3v-55l-17.2,6l3.5,3V61.6z M282,60.3c0.8,0.4,1.8,0.7,2.8,0.7c2.8,0,6-1.5,6-13.6    c0-13.4-3.7-14.9-6.5-14.9c-0.7,0-1.4,0.1-2.2,0.4L282,60.3L282,60.3z"/>
		<path class="st0" d="M328,87.2l-18.9-12.5L331.4,63l-16.6-32.8l-8-5.7h32.7l-5.4,5.3l6.1,15.6l7.6-15.7l-5.9-5.3h21.5l-7.8,5.7    L328,87.2z M313.4,75l13.7,9l26.6-55.2l2.8-2.1h-8.9l2.9,2.5L340,50.9l-8.4-21.7l2.6-2.5h-20.6l2.9,2.1L334.3,64L313.4,75z"/>
	</g>
	<path class="st0" d="M249.6,64.6c-6,0-9.9-3.9-9.9-10c0-6,3.9-9.9,9.9-9.9s9.9,3.9,9.9,9.9C259.5,60.7,255.6,64.6,249.6,64.6z    M249.6,46.8c-4.8,0-7.7,2.9-7.7,7.7c0,4.9,2.9,7.8,7.7,7.8s7.7-2.9,7.7-7.8C257.3,49.7,254.4,46.8,249.6,46.8z"/>
	<g>
		<path class="st0" d="M82.6,42.6c0,0,10.2-0.8,10.1-9.6c0-9.4-15.8-8.7-15.8-8.7H54.2l4,3.4l-0.1,35c0,0,7.8,0,18.2,0    s18.1-2,18.1-10.2C94.5,44.2,82.6,42.6,82.6,42.6z M71.8,25.7c0,0,7.6-0.9,7.6,7.6c0,8.2-5.1,8-5.1,8h-2.5V25.7z M74.7,61h-2.9    V44.1c0,0,8.7-1,8.7,8.3C80.5,61.2,74.7,61,74.7,61z"/>
		<path class="st0" d="M35,62.6L23.2,44.2v18.4H7.9V27.9L3.4,24l19.7-7.1v26l6-4.4c3.9-2.9,5.8-4.8,5.8-8.3c0-2.1-0.9-4.4-3.4-5.6    v-0.4h15.8c0.5,0.6,0.6,1.2,0.6,2c0,3.2-3.7,5.5-9,7.8l-4.8,2.1l18,26.5H35z"/>
		<path class="st0" d="M197.9,62.6l-11.8-18.5v18.5h-15.2V27.9l-4.5-3.9l19.7-7.1v26l6-4.4c3.9-2.9,5.8-4.8,5.8-8.3    c0-2.1-0.9-4.4-3.4-5.6v-0.4h15.8c0.5,0.6,0.6,1.2,0.6,2c0,3.2-3.7,5.5-9,7.8l-4.8,2.1L215,62.6H197.9z"/>
		<path class="st0" d="M102.2,62.6V33.5l-4.4-3.7l19.2-6.9v39.7H102.2z M100.9,13c0-5,3.1-8.5,8.5-8.5s8.5,3.4,8.5,8.5    s-3.1,8.6-8.5,8.6C104,21.6,100.9,18.2,100.9,13z"/>
		<path class="st0" d="M220.4,62.6V33.5l-4.4-3.7l19.2-6.9v39.7H220.4z M219.1,13c0-5,3.1-8.5,8.5-8.5s8.5,3.4,8.5,8.5    s-3.1,8.6-8.5,8.6C222.1,21.6,219.1,18.2,219.1,13z"/>
		<path class="st0" d="M123.8,24.2v15h0.1c4-9.2,6.8-11.5,11.6-12.1v35.5H150V27.1c4.8,0.6,7.6,3,11.6,12.1h0.1v-15H123.8z"/>
	</g>
</g>
</svg>