<?xml version="1.0" standalone="no"?>
<!DOCTYPE svg PUBLIC "-//W3C//DTD SVG 20010904//EN"
 "http://www.w3.org/TR/2001/REC-SVG-20010904/DTD/svg10.dtd">
<svg version="1.0" xmlns="http://www.w3.org/2000/svg"
 width="200.000000pt" height="200.000000pt" viewBox="0 0 200.000000 200.000000"
 preserveAspectRatio="xMidYMid meet">

<g transform="translate(0.000000,200.000000) scale(0.100000,-0.100000)"
fill="#c9a035" stroke="none">
<path d="M365 1970 c-25 -3 -35 -8 -27 -13 20 -14 14 -36 -13 -43 -33 -8 -32
-24 3 -24 15 0 34 -4 42 -10 8 -5 19 -5 25 0 13 11 37 -44 59 -135 9 -38 19
-80 22 -92 4 -16 2 -23 -7 -23 -8 0 -31 -16 -51 -35 -30 -28 -38 -43 -38 -70
0 -19 5 -35 10 -35 6 0 10 -9 10 -19 0 -11 7 -26 15 -35 8 -8 15 -22 15 -31 0
-9 10 -25 22 -35 19 -15 20 -20 9 -34 -9 -11 -14 -59 -17 -161 -3 -145 -3
-146 -33 -184 -17 -21 -31 -43 -31 -48 0 -5 -5 -21 -12 -35 -12 -24 -16 -25
-70 -20 -37 3 -58 1 -58 -5 0 -6 -16 -14 -35 -17 -79 -15 -94 -105 -45 -259
16 -51 35 -128 42 -171 9 -61 16 -80 30 -84 10 -2 18 -11 18 -19 0 -19 -29
-64 -59 -90 -22 -19 -24 -24 -11 -33 25 -17 74 -12 93 10 18 22 33 25 41 11 9
-14 45 -1 51 19 3 10 -1 37 -9 61 -27 80 -58 303 -46 332 8 21 9 20 9 -6 1
-15 11 -47 23 -70 43 -82 68 -153 83 -237 9 -47 19 -95 22 -107 4 -16 1 -23
-10 -23 -15 0 -27 -20 -27 -46 0 -8 15 -21 34 -29 26 -11 38 -25 52 -61 l18
-46 50 7 c28 4 130 9 226 10 169 3 288 20 315 46 16 16 42 10 48 -11 8 -30 45
-26 53 5 7 30 7 29 45 9 21 -11 43 -13 70 -9 47 8 50 19 9 34 -16 5 -30 17
-30 25 0 19 1 19 36 6 22 -9 29 -7 41 9 13 19 16 19 56 5 23 -9 69 -22 102
-30 71 -18 103 -36 115 -70 9 -23 13 -24 63 -18 40 5 62 2 85 -10 25 -13 36
-14 57 -4 29 13 34 46 8 54 -10 3 -54 23 -98 44 -44 21 -93 41 -110 45 -51 11
-175 76 -195 103 -26 33 -27 90 -1 100 19 7 18 11 -16 102 -46 124 -60 138
-165 161 -45 10 -97 19 -114 19 -16 0 -34 4 -40 9 -5 6 -43 17 -84 25 -128 26
-210 58 -225 87 -8 14 -21 31 -29 38 -9 8 -16 29 -16 50 0 20 -9 54 -19 77
-23 50 -38 189 -21 199 7 5 9 26 5 63 -3 32 -9 89 -13 128 -5 49 -14 78 -30
98 -12 16 -22 36 -22 45 0 9 -9 30 -20 46 -31 45 -69 129 -115 255 -33 90 -50
125 -83 165 -32 39 -39 42 -87 35z m323 -1400 c33 -20 33 -21 27 -78 -9 -71
-33 -180 -46 -204 -7 -13 -22 -18 -52 -18 -23 -1 -60 -7 -82 -15 -22 -8 -43
-15 -47 -15 -5 0 -8 26 -8 58 0 31 -9 93 -19 137 -11 44 -21 94 -23 110 -3 29
-1 30 42 36 102 14 174 10 208 -11z"/>
</g>
</svg>
