<?xml version="1.0" standalone="no"?><!DOCTYPE svg PUBLIC "-//W3C//DTD SVG 1.1//EN" "http://www.w3.org/Graphics/SVG/1.1/DTD/svg11.dtd"><svg t="1698071050362" class="icon" viewBox="0 0 1024 1024" version="1.1" xmlns="http://www.w3.org/2000/svg" p-id="9430" xmlns:xlink="http://www.w3.org/1999/xlink" width="128" height="128"><path d="M1006.933333 0H17.066667C6.826667 0 0 6.826667 0 17.066667s6.826667 17.066667 17.066667 17.066666H34.133333v631.466667c0 10.24 6.826667 17.066667 17.066667 17.066667h40.96c6.826667 0 13.653333-3.413333 17.066667-10.24 13.653333-34.133333 44.373333-58.026667 78.506666-58.026667h27.306667c10.24 0 17.066667-6.826667 17.066667-17.066667v-6.826666c-3.413333-13.653333-6.826667-27.306667-6.826667-44.373334h566.613333c-3.413333 17.066667-10.24 34.133333-13.653333 47.786667 0 3.413333 0 10.24 3.413333 13.653333 3.413333 3.413333 6.826667 6.826667 13.653334 6.826667h75.093333c34.133333 0 68.266667 23.893333 78.506667 58.026667 3.413333 6.826667 10.24 10.24 17.066666 10.24h6.826667c10.24 0 17.066667-6.826667 17.066667-17.066667V34.133333h17.066666c10.24 0 17.066667-6.826667 17.066667-17.066666s-6.826667-17.066667-17.066667-17.066667zM215.04 512c-10.24-40.96-23.893333-81.92-37.546667-112.64 78.506667-44.373333 160.426667-204.8 187.733334-259.413333 23.893333 13.653333 75.093333 30.72 146.773333 30.72s122.88-17.066667 146.773333-27.306667c27.306667 54.613333 112.64 211.626667 187.733334 259.413333-17.066667 30.72-30.72 71.68-44.373334 112.64 0-3.413333-587.093333-3.413333-587.093333-3.413333zM870.4 853.333333h-136.533333c-27.306667 0-51.2 23.893333-51.2 51.2v102.4c0 10.24 6.826667 17.066667 17.066666 17.066667h204.8c10.24 0 17.066667-6.826667 17.066667-17.066667v-102.4c0-27.306667-23.893333-51.2-51.2-51.2zM597.333333 853.333333h-136.533333c-27.306667 0-51.2 23.893333-51.2 51.2v102.4c0 10.24 6.826667 17.066667 17.066667 17.066667h204.8c10.24 0 17.066667-6.826667 17.066666-17.066667v-102.4c0-27.306667-23.893333-51.2-51.2-51.2zM324.266667 853.333333h-136.533334c-27.306667 0-51.2 23.893333-51.2 51.2v102.4c0 10.24 6.826667 17.066667 17.066667 17.066667h204.8c10.24 0 17.066667-6.826667 17.066667-17.066667v-102.4c0-27.306667-23.893333-51.2-51.2-51.2z" fill="#c9a035" p-id="9431"></path><path d="M870.4 648.533333h-136.533333c-27.306667 0-51.2 23.893333-51.2 51.2v102.4c0 10.24 6.826667 17.066667 17.066666 17.066667h204.8c10.24 0 17.066667-6.826667 17.066667-17.066667v-102.4c0-27.306667-23.893333-51.2-51.2-51.2zM597.333333 648.533333h-136.533333c-27.306667 0-51.2 23.893333-51.2 51.2v102.4c0 10.24 6.826667 17.066667 17.066667 17.066667h204.8c10.24 0 17.066667-6.826667 17.066666-17.066667v-102.4c0-27.306667-23.893333-51.2-51.2-51.2zM324.266667 648.533333h-136.533334c-27.306667 0-51.2 23.893333-51.2 51.2v102.4c0 10.24 6.826667 17.066667 17.066667 17.066667h204.8c10.24 0 17.066667-6.826667 17.066667-17.066667v-102.4c0-27.306667-23.893333-51.2-51.2-51.2z" fill="#c9a035" p-id="9432"></path></svg>